<?xml version="1.0" encoding="UTF-8" standalone="no"?>
<!-- Created with Inkscape (http://www.inkscape.org/) -->

<svg
   xmlns:dc="http://purl.org/dc/elements/1.1/"
   xmlns:cc="http://creativecommons.org/ns#"
   xmlns:rdf="http://www.w3.org/1999/02/22-rdf-syntax-ns#"
   xmlns:svg="http://www.w3.org/2000/svg"
   xmlns="http://www.w3.org/2000/svg"
   xmlns:sodipodi="http://sodipodi.sourceforge.net/DTD/sodipodi-0.dtd"
   xmlns:inkscape="http://www.inkscape.org/namespaces/inkscape"
   width="252.92102mm"
   height="48.833263mm"
   id="svg3031"
   version="1.1"
   inkscape:version="0.91 r13725"
   sodipodi:docname="logo_br-io_fundo-claro-novo.svg"
   inkscape:export-filename="/home/letuche/Workspace/brasil.io/frontend/first-release/img/logo_br-io_fundo-claro.png"
   inkscape:export-xdpi="90"
   inkscape:export-ydpi="90">
  <defs
     id="defs3033" />
  <sodipodi:namedview
     id="base"
     pagecolor="#ffffff"
     bordercolor="#666666"
     borderopacity="1.0"
     inkscape:pageopacity="0.0"
     inkscape:pageshadow="2"
     inkscape:zoom="0.575"
     inkscape:cx="195.03336"
     inkscape:cy="38.593432"
     inkscape:document-units="px"
     inkscape:current-layer="flowRoot3359"
     showgrid="false"
     inkscape:window-width="1362"
     inkscape:window-height="725"
     inkscape:window-x="0"
     inkscape:window-y="0"
     inkscape:window-maximized="0"
     fit-margin-top="0"
     fit-margin-left="0"
     fit-margin-right="0"
     fit-margin-bottom="0"
     units="mm"
     showguides="true"
     inkscape:guide-bbox="true">
    <sodipodi:guide
       position="140.73171,26.016262"
       orientation="0,1"
       id="guide3349" />
  </sodipodi:namedview>
  <metadata
     id="metadata3036">
    <rdf:RDF>
      <cc:Work
         rdf:about="">
        <dc:format>image/svg+xml</dc:format>
        <dc:type
           rdf:resource="http://purl.org/dc/dcmitype/StillImage" />
        <dc:title></dc:title>
      </cc:Work>
    </rdf:RDF>
  </metadata>
  <g
     inkscape:label="Layer 1"
     inkscape:groupmode="layer"
     id="layer1"
     transform="translate(-276.13389,166.27317)">
    <path
       style="color:#000000;font-style:normal;font-variant:normal;font-weight:normal;font-stretch:normal;font-size:medium;line-height:normal;font-family:Sans;-inkscape-font-specification:Sans;text-indent:0;text-align:start;text-decoration:none;text-decoration-line:none;letter-spacing:normal;word-spacing:normal;text-transform:none;direction:ltr;block-progression:tb;writing-mode:lr-tb;baseline-shift:baseline;text-anchor:start;display:inline;overflow:visible;visibility:visible;fill:#44aa00;fill-opacity:1;fill-rule:nonzero;stroke:none;stroke-width:5;marker:none;enable-background:accumulate"
       d="m 535.66454,-166.27312 -2.58759,0.0937 -12.4338,0.53125 -47.80592,2 -10e-4,25.15625 35.99301,-1.53125 -8.5432,120.46875 -27.36472,0.15625 0.0259,25.0937501 40.45025,-0.28125 0.0313,0 8.24589,-0.0625 2.15625,0 0.13939,-2.15625 0.59046,-8.125 10.38859,-146.0937501 0.87747,-12.3125 0.019,-0.1875 -0.0103,-0.15625 -0.17064,-2.59375 z"
       id="path3917"
       inkscape:connector-curvature="0"
       inkscape:export-filename="/home/karlisson/brasil.png"
       inkscape:export-xdpi="90"
       inkscape:export-ydpi="90" />
    <path
       style="color:#000000;font-style:normal;font-variant:normal;font-weight:normal;font-stretch:normal;font-size:medium;line-height:normal;font-family:Sans;-inkscape-font-specification:Sans;text-indent:0;text-align:start;text-decoration:none;text-decoration-line:none;letter-spacing:normal;word-spacing:normal;text-transform:none;direction:ltr;block-progression:tb;writing-mode:lr-tb;baseline-shift:baseline;text-anchor:start;display:inline;overflow:visible;visibility:visible;fill:#44aa00;fill-opacity:1;fill-rule:nonzero;stroke:none;stroke-width:5;marker:none;enable-background:accumulate"
       d="m 331.97764,-157.49187 -43.71875,1.84375 -9.59375,0.40625 -2.53125,0.0937 0.125,2.53125 0.46875,9.65625 7,137.3125001 0.53125,10.03125 0.125,2.375 2.40625,0 9.96875,-0.0625 0.0313,0 46.25,-0.28125 -1.6875,-25.0312501 -33.25,0.21875 -5.75,-112.75 31.3125,-1.3125 -1.68755,-25.0312 z"
       id="path3909"
       inkscape:export-filename="/home/karlisson/brasil.png"
       inkscape:export-xdpi="90"
       inkscape:export-ydpi="90"
       inkscape:connector-curvature="0" />
    <path
       style="fill:#ffcc00;fill-opacity:1;stroke:none"
       d="m 347.60789,-132.32092 -55.51748,52.47616 61.20505,60.08965 17.15768,-14.214 -47.67275,-44.15886 43.36928,-37.36708 z"
       id="path3037"
       inkscape:connector-curvature="0"
       sodipodi:nodetypes="ccccccc"
       inkscape:export-filename="/home/karlisson/brasil.png"
       inkscape:export-xdpi="90"
       inkscape:export-ydpi="90" />
    <path
       style="fill:#ffcc00;fill-opacity:1;stroke:none"
       d="m 435.31188,-127.46911 18.64704,-15.90992 62.44221,67.16274 -75.21437,53.16996 -16.37546,-17.96443 59.10447,-37.71157 z"
       id="path3039"
       inkscape:connector-curvature="0"
       sodipodi:nodetypes="ccccccc"
       inkscape:export-filename="/home/karlisson/brasil.png"
       inkscape:export-xdpi="90"
       inkscape:export-ydpi="90" />
    <path
       style="fill:#0000a7;fill-opacity:1;stroke:none"
       d="m 370.15622,-57.3304 c 0.68113,4.2519 -1.29895,7.61458 -3.77459,10.13485 21.45209,5.99554 15.98221,-16.04533 12.12794,-24.52546 -3.08497,-7.52269 -3.96751,-12.58919 -1.29566,-18.80904 -26.909,-3.4069 -6.61735,25.51075 -7.05769,33.19965 z"
       id="path3043"
       inkscape:connector-curvature="0"
       sodipodi:nodetypes="ccccc"
       inkscape:export-filename="/home/karlisson/brasil.png"
       inkscape:export-xdpi="90"
       inkscape:export-ydpi="90" />
    <ellipse
       style="color:#000000;display:inline;overflow:visible;visibility:visible;fill:#0000a7;fill-opacity:1;fill-rule:evenodd;stroke:none;stroke-width:0.9718253px;marker:none;enable-background:accumulate"
       id="path3045"
       transform="matrix(0.99990211,0.01399171,-0.10792694,0.99415883,0,0)"
       inkscape:export-filename="/home/karlisson/brasil.png"
       inkscape:export-xdpi="90"
       inkscape:export-ydpi="90"
       cx="359.88992"
       cy="-106.83958"
       rx="6.2592945"
       ry="6.3308196" />
    <path
       style="color:#000000;display:inline;overflow:visible;visibility:visible;fill:#0000a7;fill-opacity:1;fill-rule:evenodd;stroke:none;stroke-width:1px;marker:none;enable-background:accumulate"
       d="m 411.88246,-113.18646 c -16.04571,-0.69582 -29.67404,12.07248 -30.42924,28.53882 -0.75519,16.46635 11.64905,30.38892 27.69475,31.08474 16.0457,0.69582 29.65051,-12.09888 30.4057,-28.56524 0.75519,-16.46634 -11.62551,-30.3625 -27.67121,-31.05832 z m -0.6043,13.17648 c 8.94857,0.38805 15.8568,8.14188 15.43564,17.32505 -0.42117,9.18316 -8.01179,16.30826 -16.96036,15.92021 -8.94857,-0.38805 -15.8815,-8.14296 -15.46034,-17.32613 0.42116,-9.18316 8.03649,-16.30719 16.98506,-15.91913 z"
       id="path3108"
       inkscape:connector-curvature="0"
       inkscape:export-filename="/home/karlisson/brasil.png"
       inkscape:export-xdpi="90"
       inkscape:export-ydpi="90" />
    <flowRoot
       xml:space="preserve"
       id="flowRoot3351"
       style="font-style:normal;font-variant:normal;font-weight:500;font-stretch:normal;font-size:80px;line-height:125%;font-family:Ubuntu;-inkscape-font-specification:'Ubuntu Medium';letter-spacing:0px;word-spacing:0px;fill:#000000;fill-opacity:1;stroke:none;stroke-width:1px;stroke-linecap:butt;stroke-linejoin:miter;stroke-opacity:1"><flowRegion
         id="flowRegion3353"><rect
           id="rect3355"
           width="371.54471"
           height="147.96748"
           x="442.27643"
           y="283.11887"
           style="font-style:normal;font-variant:normal;font-weight:500;font-stretch:normal;font-size:80px;font-family:Ubuntu;-inkscape-font-specification:'Ubuntu Medium'" /></flowRegion><flowPara
         id="flowPara3357" /></flowRoot>    <g
       transform="matrix(1.7993874,0,0,1.7993874,-215.89555,-693.06029)"
       style="font-style:normal;font-weight:normal;font-size:40px;line-height:125%;font-family:sans-serif;letter-spacing:0px;word-spacing:0px;fill:#0000a7;fill-opacity:1;stroke:none;stroke-width:1px;stroke-linecap:butt;stroke-linejoin:miter;stroke-opacity:1"
       id="flowRoot3359">
      <path
         d="m 475.55844,349.8899 q 0,-6.93 -2.79,-10.98 -2.7,-4.05 -8.64,-4.05 -2.7,0 -5.13,0.81 -2.34,0.81 -3.78,1.8 l 0,27.09 q 1.17,0.27 2.97,0.54 1.89,0.18 4.5,0.18 6.03,0 9.45,-4.05 3.42,-4.14 3.42,-11.34 z m 11.16,0.18 q 0,5.67 -1.71,10.26 -1.62,4.5 -4.77,7.74 -3.06,3.24 -7.47,4.95 -4.41,1.71 -9.99,1.71 -5.4,0 -10.35,-0.81 -4.86,-0.81 -8.1,-1.8 l 0,-66.6 10.89,-1.8 0,24.39 q 1.89,-0.99 4.59,-1.8 2.79,-0.81 6.12,-0.81 4.95,0 8.82,1.8 3.96,1.71 6.57,4.95 2.61,3.24 3.96,7.83 1.44,4.5 1.44,9.99 z"
         style="font-style:normal;font-variant:normal;font-weight:500;font-stretch:normal;font-size:90px;font-family:Ubuntu;-inkscape-font-specification:'Ubuntu Medium';letter-spacing:-0.00555745px;fill:#0000a7;fill-opacity:1"
         id="path4150" />
      <path
         d="m 524.75616,336.2999 q -1.35,-0.45 -3.78,-0.9 -2.34,-0.54 -5.49,-0.54 -1.8,0 -3.87,0.36 -1.98,0.36 -2.79,0.63 l 0,37.71 -10.89,0 0,-44.82 q 3.15,-1.17 7.83,-2.16 4.77,-1.08 10.53,-1.08 1.08,0 2.52,0.18 1.44,0.09 2.88,0.36 1.44,0.18 2.79,0.54 1.35,0.27 2.16,0.54 l -1.89,9.18 z"
         style="font-style:normal;font-variant:normal;font-weight:500;font-stretch:normal;font-size:90px;font-family:Ubuntu;-inkscape-font-specification:'Ubuntu Medium';letter-spacing:-0.00555745px;fill:#0000a7;fill-opacity:1"
         id="path4152" />
      <path
         d="m 550.70154,365.9099 q 5.04,0 7.65,-0.54 l 0,-12.06 q -0.9,-0.27 -2.61,-0.54 -1.71,-0.27 -3.78,-0.27 -1.8,0 -3.69,0.27 -1.8,0.27 -3.33,0.99 -1.44,0.72 -2.34,2.07 -0.9,1.26 -0.9,3.24 0,3.87 2.43,5.4 2.43,1.44 6.57,1.44 z m -0.9,-40.59 q 5.4,0 9.09,1.35 3.69,1.35 5.85,3.78 2.25,2.43 3.15,5.94 0.99,3.42 0.99,7.56 l 0,28.53 q -2.52,0.54 -7.65,1.26 -5.04,0.81 -11.43,0.81 -4.23,0 -7.74,-0.81 -3.51,-0.81 -6.03,-2.61 -2.43,-1.8 -3.87,-4.68 -1.35,-2.88 -1.35,-7.11 0,-4.05 1.53,-6.84 1.62,-2.79 4.32,-4.5 2.7,-1.8 6.21,-2.52 3.6,-0.81 7.47,-0.81 1.8,0 3.78,0.27 1.98,0.18 4.23,0.72 l 0,-1.8 q 0,-1.89 -0.45,-3.6 -0.45,-1.71 -1.62,-2.97 -1.08,-1.35 -2.97,-2.07 -1.8,-0.72 -4.59,-0.72 -3.78,0 -6.93,0.54 -3.15,0.54 -5.13,1.26 l -1.35,-8.82 q 2.07,-0.72 6.03,-1.44 3.96,-0.72 8.46,-0.72 z"
         style="font-style:normal;font-variant:normal;font-weight:500;font-stretch:normal;font-size:90px;font-family:Ubuntu;-inkscape-font-specification:'Ubuntu Medium';letter-spacing:-0.00555745px;fill:#0000a7;fill-opacity:1"
         id="path4154" />
      <path
         d="m 593.91426,365.7299 q 4.32,0 6.3,-0.99 1.98,-1.08 1.98,-3.6 0,-2.34 -2.16,-3.87 -2.07,-1.53 -6.93,-3.33 -2.97,-1.08 -5.49,-2.25 -2.43,-1.26 -4.23,-2.88 -1.8,-1.62 -2.88,-3.87 -0.99,-2.34 -0.99,-5.67 0,-6.48 4.77,-10.17 4.77,-3.78 12.96,-3.78 4.14,0 7.92,0.81 3.78,0.72 5.67,1.44 l -1.98,8.82 q -1.8,-0.81 -4.59,-1.44 -2.79,-0.72 -6.48,-0.72 -3.33,0 -5.4,1.17 -2.07,1.08 -2.07,3.42 0,1.17 0.36,2.07 0.45,0.9 1.44,1.71 0.99,0.72 2.61,1.53 1.62,0.72 3.96,1.53 3.87,1.44 6.57,2.88 2.7,1.35 4.41,3.15 1.8,1.71 2.61,3.96 0.81,2.25 0.81,5.4 0,6.75 -5.04,10.26 -4.95,3.42 -14.22,3.42 -6.21,0 -9.99,-1.08 -3.78,-0.99 -5.31,-1.62 l 1.89,-9.09 q 2.43,0.99 5.76,1.89 3.42,0.9 7.74,0.9 z"
         style="font-style:normal;font-variant:normal;font-weight:500;font-stretch:normal;font-size:90px;font-family:Ubuntu;-inkscape-font-specification:'Ubuntu Medium';letter-spacing:-0.00555745px;fill:#0000a7;fill-opacity:1"
         id="path4156" />
      <path
         d="m 634.23152,373.5599 -10.89,0 0,-47.07 10.89,0 0,47.07 z m 1.17,-60.84 q 0,3.06 -1.98,4.86 -1.98,1.8 -4.68,1.8 -2.79,0 -4.77,-1.8 -1.98,-1.8 -1.98,-4.86 0,-3.15 1.98,-4.95 1.98,-1.8 4.77,-1.8 2.7,0 4.68,1.8 1.98,1.8 1.98,4.95 z"
         style="font-style:normal;font-variant:normal;font-weight:500;font-stretch:normal;font-size:90px;font-family:Ubuntu;-inkscape-font-specification:'Ubuntu Medium';letter-spacing:-0.00555745px;fill:#0000a7;fill-opacity:1"
         id="path4158" />
      <path
         d="m 664.41112,374.4599 q -4.86,-0.09 -8.1,-1.08 -3.15,-0.99 -5.04,-2.79 -1.89,-1.89 -2.7,-4.59 -0.72,-2.79 -0.72,-6.3 l 0,-54.18 10.89,-1.8 0,53.91 q 0,1.98 0.27,3.33 0.36,1.35 1.17,2.34 0.81,0.9 2.16,1.44 1.44,0.45 3.6,0.72 l -1.53,9 z"
         style="font-style:normal;font-variant:normal;font-weight:500;font-stretch:normal;font-size:90px;font-family:Ubuntu;-inkscape-font-specification:'Ubuntu Medium';letter-spacing:-0.00555745px;fill:#0000a7;fill-opacity:1"
         id="path4160" />
      <path
         d="m 686.98432,367.6199 q 0,3.15 -2.16,5.13 -2.07,1.98 -5.04,1.98 -3.06,0 -5.13,-1.98 -2.07,-1.98 -2.07,-5.13 0,-3.15 2.07,-5.13 2.07,-2.07 5.13,-2.07 2.97,0 5.04,2.07 2.16,1.98 2.16,5.13 z"
         style="font-style:normal;font-variant:normal;font-weight:500;font-stretch:normal;font-size:90px;font-family:Ubuntu;-inkscape-font-specification:'Ubuntu Medium';letter-spacing:-0.00555745px;fill:#0000a7;fill-opacity:1"
         id="path4162" />
      <path
         d="m 709.62501,373.5599 -10.89,0 0,-47.07 10.89,0 0,47.07 z m 1.17,-60.84 q 0,3.06 -1.98,4.86 -1.98,1.8 -4.68,1.8 -2.79,0 -4.77,-1.8 -1.98,-1.8 -1.98,-4.86 0,-3.15 1.98,-4.95 1.98,-1.8 4.77,-1.8 2.7,0 4.68,1.8 1.98,1.8 1.98,4.95 z"
         style="font-style:normal;font-variant:normal;font-weight:500;font-stretch:normal;font-size:90px;font-family:Ubuntu;-inkscape-font-specification:'Ubuntu Medium';letter-spacing:-0.00555745px;fill:#0000a7;fill-opacity:1"
         id="path4164" />
      <path
         d="m 765.9946,349.9799 q 0,5.58 -1.62,10.17 -1.62,4.59 -4.59,7.83 -2.97,3.24 -7.2,5.04 -4.14,1.8 -9.18,1.8 -5.04,0 -9.18,-1.8 -4.14,-1.8 -7.11,-5.04 -2.97,-3.24 -4.68,-7.83 -1.62,-4.59 -1.62,-10.17 0,-5.58 1.62,-10.08 1.71,-4.59 4.68,-7.83 3.06,-3.24 7.2,-4.95 4.14,-1.8 9.09,-1.8 4.95,0 9.09,1.8 4.23,1.71 7.2,4.95 2.97,3.24 4.59,7.83 1.71,4.5 1.71,10.08 z m -11.16,0 q 0,-7.02 -3.06,-11.07 -2.97,-4.14 -8.37,-4.14 -5.4,0 -8.46,4.14 -2.97,4.05 -2.97,11.07 0,7.11 2.97,11.25 3.06,4.14 8.46,4.14 5.4,0 8.37,-4.14 3.06,-4.14 3.06,-11.25 z"
         style="font-style:normal;font-variant:normal;font-weight:500;font-stretch:normal;font-size:90px;font-family:Ubuntu;-inkscape-font-specification:'Ubuntu Medium';letter-spacing:-0.00555745px;fill:#0000a7;fill-opacity:1"
         id="path4166" />
    </g>
  </g>
</svg>
