<?xml version="1.0" encoding="UTF-8" standalone="no"?>
<!-- Created with Inkscape (http://www.inkscape.org/) -->

<svg
   xmlns:dc="http://purl.org/dc/elements/1.1/"
   xmlns:cc="http://creativecommons.org/ns#"
   xmlns:rdf="http://www.w3.org/1999/02/22-rdf-syntax-ns#"
   xmlns:svg="http://www.w3.org/2000/svg"
   xmlns="http://www.w3.org/2000/svg"
   xmlns:sodipodi="http://sodipodi.sourceforge.net/DTD/sodipodi-0.dtd"
   xmlns:inkscape="http://www.inkscape.org/namespaces/inkscape"
   width="259.71194"
   height="173.03125"
   id="svg3031"
   version="1.1"
   inkscape:version="0.48.4 r9939"
   sodipodi:docname="logo-brasil.io.svg"
   inkscape:export-filename="/home/turicas/code/www.brasil.io/logo-brasil-io.png"
   inkscape:export-xdpi="90"
   inkscape:export-ydpi="90">
  <defs
     id="defs3033" />
  <sodipodi:namedview
     id="base"
     pagecolor="#ffffff"
     bordercolor="#666666"
     borderopacity="1.0"
     inkscape:pageopacity="0.0"
     inkscape:pageshadow="2"
     inkscape:zoom="2"
     inkscape:cx="120.18307"
     inkscape:cy="58.401687"
     inkscape:document-units="px"
     inkscape:current-layer="layer1"
     showgrid="false"
     inkscape:window-width="1362"
     inkscape:window-height="725"
     inkscape:window-x="0"
     inkscape:window-y="20"
     inkscape:window-maximized="0"
     fit-margin-top="0"
     fit-margin-left="0"
     fit-margin-right="0"
     fit-margin-bottom="0" />
  <metadata
     id="metadata3036">
    <rdf:RDF>
      <cc:Work
         rdf:about="">
        <dc:format>image/svg+xml</dc:format>
        <dc:type
           rdf:resource="http://purl.org/dc/dcmitype/StillImage" />
        <dc:title></dc:title>
      </cc:Work>
    </rdf:RDF>
  </metadata>
  <g
     inkscape:label="Layer 1"
     inkscape:groupmode="layer"
     id="layer1"
     transform="translate(-181.90625,-120.7187)">
    <path
       style="font-size:medium;font-style:normal;font-variant:normal;font-weight:normal;font-stretch:normal;text-indent:0;text-align:start;text-decoration:none;line-height:normal;letter-spacing:normal;word-spacing:normal;text-transform:none;direction:ltr;block-progression:tb;writing-mode:lr-tb;text-anchor:start;baseline-shift:baseline;color:#000000;fill:#44aa00;fill-opacity:1;fill-rule:nonzero;stroke:none;stroke-width:5;marker:none;visibility:visible;display:inline;overflow:visible;enable-background:accumulate;font-family:Sans;-inkscape-font-specification:Sans"
       d="m 441.4369,120.71875 -2.58759,0.0937 -12.4338,0.53125 -47.80592,2 -0.001,25.15625 35.99301,-1.53125 -8.5432,120.46875 -27.36472,0.15625 0.0259,25.09375 40.45025,-0.28125 0.0313,0 8.24589,-0.0625 2.15625,0 0.13939,-2.15625 0.59046,-8.125 10.38859,-146.09375 0.87747,-12.3125 0.019,-0.1875 -0.0103,-0.15625 -0.17064,-2.59375 z"
       id="path3917"
       inkscape:connector-curvature="0"
       inkscape:export-filename="/home/karlisson/brasil.png"
       inkscape:export-xdpi="90"
       inkscape:export-ydpi="90" />
    <path
       style="font-size:medium;font-style:normal;font-variant:normal;font-weight:normal;font-stretch:normal;text-indent:0;text-align:start;text-decoration:none;line-height:normal;letter-spacing:normal;word-spacing:normal;text-transform:none;direction:ltr;block-progression:tb;writing-mode:lr-tb;text-anchor:start;baseline-shift:baseline;color:#000000;fill:#44aa00;fill-opacity:1;fill-rule:nonzero;stroke:none;stroke-width:5;marker:none;visibility:visible;display:inline;overflow:visible;enable-background:accumulate;font-family:Sans;-inkscape-font-specification:Sans"
       d="m 237.75,129.5 -43.71875,1.84375 -9.59375,0.40625 -2.53125,0.0937 0.125,2.53125 0.46875,9.65625 7,137.3125 0.53125,10.03125 0.125,2.375 2.40625,0 9.96875,-0.0625 0.0313,0 46.25,-0.28125 -1.6875,-25.03125 -33.25,0.21875 -5.75,-112.75 31.3125,-1.3125 L 237.75,129.5 z"
       id="path3909"
       inkscape:export-filename="/home/karlisson/brasil.png"
       inkscape:export-xdpi="90"
       inkscape:export-ydpi="90"
       inkscape:connector-curvature="0" />
    <path
       style="fill:#ffcc00;fill-opacity:1;stroke:none"
       d="m 253.38025,154.67095 -55.51748,52.47616 61.20505,60.08965 17.15768,-14.214 -47.67275,-44.15886 43.36928,-37.36708 z"
       id="path3037"
       inkscape:connector-curvature="0"
       sodipodi:nodetypes="ccccccc"
       inkscape:export-filename="/home/karlisson/brasil.png"
       inkscape:export-xdpi="90"
       inkscape:export-ydpi="90" />
    <path
       style="fill:#ffcc00;fill-opacity:1;stroke:none"
       d="m 341.08424,159.52276 18.64704,-15.90992 62.44221,67.16274 -75.21437,53.16996 -16.37546,-17.96443 59.10447,-37.71157 z"
       id="path3039"
       inkscape:connector-curvature="0"
       sodipodi:nodetypes="ccccccc"
       inkscape:export-filename="/home/karlisson/brasil.png"
       inkscape:export-xdpi="90"
       inkscape:export-ydpi="90" />
    <path
       style="fill:#0000a7;fill-opacity:1;stroke:none"
       d="m 275.92858,229.66147 c 0.68113,4.2519 -1.29895,7.61458 -3.77459,10.13485 21.45209,5.99554 15.98221,-16.04533 12.12794,-24.52546 -3.08497,-7.52269 -3.96751,-12.58919 -1.29566,-18.80904 -26.909,-3.4069 -6.61735,25.51075 -7.05769,33.19965 z"
       id="path3043"
       inkscape:connector-curvature="0"
       sodipodi:nodetypes="ccccc"
       inkscape:export-filename="/home/karlisson/brasil.png"
       inkscape:export-xdpi="90"
       inkscape:export-ydpi="90" />
    <path
       sodipodi:type="arc"
       style="color:#000000;fill:#0000a7;fill-opacity:1;fill-rule:evenodd;stroke:none;stroke-width:0.9718253px;marker:none;visibility:visible;display:inline;overflow:visible;enable-background:accumulate"
       id="path3045"
       sodipodi:cx="112.03223"
       sodipodi:cy="297.26053"
       sodipodi:rx="2.2539029"
       sodipodi:ry="2.3864853"
       d="m 114.28613,297.26053 c 0,1.31802 -1.00911,2.38648 -2.2539,2.38648 -1.2448,0 -2.25391,-1.06846 -2.25391,-2.38648 0,-1.31802 1.00911,-2.38649 2.25391,-2.38649 1.24479,0 2.2539,1.06847 2.2539,2.38649 z"
       transform="matrix(2.7768196,0.03885627,-0.28630637,2.6372842,51.172225,-602.50175)"
       inkscape:export-filename="/home/karlisson/brasil.png"
       inkscape:export-xdpi="90"
       inkscape:export-ydpi="90" />
    <path
       style="color:#000000;fill:#0000a7;fill-opacity:1;fill-rule:evenodd;stroke:none;stroke-width:1px;marker:none;visibility:visible;display:inline;overflow:visible;enable-background:accumulate"
       d="m 317.65482,173.80541 c -16.04571,-0.69582 -29.67404,12.07248 -30.42924,28.53882 -0.75519,16.46635 11.64905,30.38892 27.69475,31.08474 16.0457,0.69582 29.65051,-12.09888 30.4057,-28.56524 0.75519,-16.46634 -11.62551,-30.3625 -27.67121,-31.05832 z m -0.6043,13.17648 c 8.94857,0.38805 15.8568,8.14188 15.43564,17.32505 -0.42117,9.18316 -8.01179,16.30826 -16.96036,15.92021 -8.94857,-0.38805 -15.8815,-8.14296 -15.46034,-17.32613 0.42116,-9.18316 8.03649,-16.30719 16.98506,-15.91913 z"
       id="path3108"
       inkscape:connector-curvature="0"
       inkscape:export-filename="/home/karlisson/brasil.png"
       inkscape:export-xdpi="90"
       inkscape:export-ydpi="90" />
  </g>
</svg>
