<?xml version="1.0" encoding="UTF-8" standalone="no"?>
<!-- Created with Inkscape (http://www.inkscape.org/) -->

<svg
   xmlns:dc="http://purl.org/dc/elements/1.1/"
   xmlns:cc="http://creativecommons.org/ns#"
   xmlns:rdf="http://www.w3.org/1999/02/22-rdf-syntax-ns#"
   xmlns:svg="http://www.w3.org/2000/svg"
   xmlns="http://www.w3.org/2000/svg"
   xmlns:sodipodi="http://sodipodi.sourceforge.net/DTD/sodipodi-0.dtd"
   xmlns:inkscape="http://www.inkscape.org/namespaces/inkscape"
   width="43.994091mm"
   height="50.800003mm"
   viewBox="0 0 155.88457 180.00001"
   id="svg4232"
   version="1.1"
   inkscape:version="0.91 r13725"
   sodipodi:docname="adesivo-hex-v3.svg">
  <defs
     id="defs4234" />
  <sodipodi:namedview
     id="base"
     pagecolor="#ffffff"
     bordercolor="#666666"
     borderopacity="1.0"
     inkscape:pageopacity="0.0"
     inkscape:pageshadow="2"
     inkscape:zoom="2.8284271"
     inkscape:cx="52.500609"
     inkscape:cy="88.463125"
     inkscape:document-units="px"
     inkscape:current-layer="flowRoot3359"
     showgrid="false"
     inkscape:snap-page="false"
     fit-margin-top="0"
     fit-margin-left="0"
     fit-margin-right="0"
     fit-margin-bottom="0"
     showguides="false"
     inkscape:guide-bbox="true"
     inkscape:window-width="1366"
     inkscape:window-height="744"
     inkscape:window-x="0"
     inkscape:window-y="0"
     inkscape:window-maximized="1">
    <sodipodi:guide
       position="77.781747,169.20055"
       orientation="1,0"
       id="guide4821" />
    <sodipodi:guide
       position="29.799501,134.85536"
       orientation="0,1"
       id="guide4823" />
    <sodipodi:guide
       position="33.335035,45.456863"
       orientation="0,1"
       id="guide4825" />
    <inkscape:grid
       type="xygrid"
       id="grid4888" />
    <sodipodi:guide
       position="31.466252,119.50104"
       orientation="1,0"
       id="guide4890" />
    <sodipodi:guide
       position="123.39014,134.85536"
       orientation="1,0"
       id="guide4892" />
  </sodipodi:namedview>
  <metadata
     id="metadata4237">
    <rdf:RDF>
      <cc:Work
         rdf:about="">
        <dc:format>image/svg+xml</dc:format>
        <dc:type
           rdf:resource="http://purl.org/dc/dcmitype/StillImage" />
        <dc:title></dc:title>
      </cc:Work>
    </rdf:RDF>
  </metadata>
  <g
     inkscape:label="Layer 1"
     inkscape:groupmode="layer"
     id="layer1"
     transform="translate(-261.07215,-220.5332)">
    <path
       sodipodi:type="star"
       style="opacity:1;fill:#333ccc;fill-opacity:1;stroke:none;stroke-width:0.93906689;stroke-miterlimit:4;stroke-dasharray:none;stroke-opacity:1"
       id="path4786"
       sodipodi:sides="6"
       sodipodi:cx="339.01443"
       sodipodi:cy="310.5332"
       sodipodi:r1="89.457832"
       sodipodi:r2="77.472755"
       sodipodi:arg1="0.52359878"
       sodipodi:arg2="1.0471976"
       inkscape:flatsided="true"
       inkscape:rounded="0"
       inkscape:randomized="0"
       d="m 416.48719,355.26212 -77.47276,44.72892 -77.47275,-44.72892 0,-89.45783 77.47276,-44.72892 77.47275,44.72892 z" />
    <path
       d="m 412.95166,353.22088 -73.93723,42.68767 -73.93722,-42.68767 0,-85.37535 73.93723,-42.68768 73.93722,42.68768 z"
       inkscape:randomized="0"
       inkscape:rounded="0"
       inkscape:flatsided="true"
       sodipodi:arg2="1.0471976"
       sodipodi:arg1="0.52359878"
       sodipodi:r2="73.937222"
       sodipodi:r1="85.375349"
       sodipodi:cy="310.5332"
       sodipodi:cx="339.01443"
       sodipodi:sides="6"
       id="path4963"
       style="opacity:1;fill:#ffffff;fill-opacity:1;stroke:none;stroke-width:0.93906689;stroke-miterlimit:4;stroke-dasharray:none;stroke-opacity:1"
       sodipodi:type="star" />
    <path
       d="m 410.62569,351.87798 -71.61126,41.34478 -71.61125,-41.34478 0,-82.68955 71.61126,-41.34478 71.61125,41.34478 z"
       inkscape:randomized="0"
       inkscape:rounded="0"
       inkscape:flatsided="true"
       sodipodi:arg2="1.0471976"
       sodipodi:arg1="0.52359878"
       sodipodi:r2="71.611247"
       sodipodi:r1="82.689553"
       sodipodi:cy="310.5332"
       sodipodi:cx="339.01443"
       sodipodi:sides="6"
       id="path4961"
       style="opacity:1;fill:#333ccc;fill-opacity:1;stroke:none;stroke-width:0.93906689;stroke-miterlimit:4;stroke-dasharray:none;stroke-opacity:1"
       sodipodi:type="star" />
    <g
       id="g4827"
       transform="matrix(1.0570141,0,0,1.0570141,-19.137413,-13.849674)">
      <g
         id="g4860"
         transform="matrix(0.82751673,0,0,0.82751673,59.926307,42.768157)">
        <path
           style="color:#000000;font-style:normal;font-variant:normal;font-weight:normal;font-stretch:normal;font-size:medium;line-height:normal;font-family:Sans;-inkscape-font-specification:Sans;text-indent:0;text-align:start;text-decoration:none;text-decoration-line:none;letter-spacing:normal;word-spacing:normal;text-transform:none;direction:ltr;block-progression:tb;writing-mode:lr-tb;baseline-shift:baseline;text-anchor:start;display:inline;overflow:visible;visibility:visible;fill:#44aa00;fill-opacity:1;fill-rule:nonzero;stroke:none;stroke-width:5;marker:none;enable-background:accumulate"
           d="m 395.04923,264.52014 -1.11473,0.0404 -5.35645,0.22886 -20.59465,0.8616 -4.3e-4,10.83724 15.50568,-0.65966 -3.68038,51.8976 -11.78865,0.0673 0.0112,10.81032 17.42585,-0.12116 0.0135,0 3.5523,-0.0269 0.92891,0 0.06,-0.9289 0.25437,-3.50023 4.47537,-62.93678 0.37802,-5.30419 0.008,-0.0808 -0.004,-0.0673 -0.0735,-1.11738 z"
           id="path3917"
           inkscape:connector-curvature="0"
           inkscape:export-filename="/home/karlisson/brasil.png"
           inkscape:export-xdpi="90"
           inkscape:export-ydpi="90" />
        <path
           style="color:#000000;font-style:normal;font-variant:normal;font-weight:normal;font-stretch:normal;font-size:medium;line-height:normal;font-family:Sans;-inkscape-font-specification:Sans;text-indent:0;text-align:start;text-decoration:none;text-decoration-line:none;letter-spacing:normal;word-spacing:normal;text-transform:none;direction:ltr;block-progression:tb;writing-mode:lr-tb;baseline-shift:baseline;text-anchor:start;display:inline;overflow:visible;visibility:visible;fill:#44aa00;fill-opacity:1;fill-rule:nonzero;stroke:none;stroke-width:5;marker:none;enable-background:accumulate"
           d="m 307.30148,268.30308 -18.83391,0.79428 -4.13296,0.17501 -1.09046,0.0404 0.0539,1.09046 0.20194,4.15989 3.01558,59.15383 0.22886,4.32144 0.0538,1.02314 1.0366,0 4.29451,-0.0269 0.0135,0 19.92437,-0.12116 -0.72697,-10.7834 -14.32401,0.0942 -2.47708,-48.57238 13.48933,-0.56542 -0.72699,-10.78337 z"
           id="path3909"
           inkscape:export-filename="/home/karlisson/brasil.png"
           inkscape:export-xdpi="90"
           inkscape:export-ydpi="90"
           inkscape:connector-curvature="0" />
        <path
           style="fill:#ffcc00;fill-opacity:1;stroke:none"
           d="m 314.03495,279.14665 -23.91678,22.60658 26.36697,25.88645 7.39148,-6.12335 -20.53729,-19.02351 18.68337,-16.09763 z"
           id="path3037"
           inkscape:connector-curvature="0"
           sodipodi:nodetypes="ccccccc"
           inkscape:export-filename="/home/karlisson/brasil.png"
           inkscape:export-xdpi="90"
           inkscape:export-ydpi="90" />
        <path
           style="fill:#ffcc00;fill-opacity:1;stroke:none"
           d="m 351.81758,281.2368 8.03309,-6.85395 26.89993,28.93352 -32.40214,22.90547 -7.0545,-7.73903 25.46204,-16.24604 z"
           id="path3039"
           inkscape:connector-curvature="0"
           sodipodi:nodetypes="ccccccc"
           inkscape:export-filename="/home/karlisson/brasil.png"
           inkscape:export-xdpi="90"
           inkscape:export-ydpi="90" />
        <path
           style="fill:#ffffff;fill-opacity:1;stroke:none"
           d="m 323.74871,311.45236 c 0.29342,1.8317 -0.55959,3.28033 -1.62609,4.36606 9.2415,2.58286 6.88509,-6.91228 5.22469,-10.5655 -1.329,-3.24075 -1.7092,-5.42339 -0.55817,-8.10288 -11.59232,-1.46768 -2.85074,10.98996 -3.04043,14.30232 z"
           id="path3043"
           inkscape:connector-curvature="0"
           sodipodi:nodetypes="ccccc"
           inkscape:export-filename="/home/karlisson/brasil.png"
           inkscape:export-xdpi="90"
           inkscape:export-ydpi="90" />
        <ellipse
           style="color:#000000;display:inline;overflow:visible;visibility:visible;fill:#ffffff;fill-opacity:1;fill-rule:evenodd;stroke:none;stroke-width:0.9718253px;marker:none;enable-background:accumulate"
           id="path3045"
           transform="matrix(0.99990211,0.01399171,-0.10792694,0.99415883,0,0)"
           inkscape:export-filename="/home/karlisson/brasil.png"
           inkscape:export-xdpi="90"
           inkscape:export-ydpi="90"
           cx="355.53391"
           cy="289.27725"
           rx="2.6964865"
           ry="2.7272992" />
        <path
           style="color:#000000;display:inline;overflow:visible;visibility:visible;fill:#ffffff;fill-opacity:1;fill-rule:evenodd;stroke:none;stroke-width:1px;marker:none;enable-background:accumulate"
           d="m 341.72425,287.38972 c -6.91244,-0.29976 -12.78349,5.20079 -13.10883,12.29444 -0.32533,7.09366 5.01838,13.09147 11.93082,13.39122 6.91244,0.29976 12.77336,-5.21216 13.09869,-12.30582 0.32534,-7.09365 -5.00823,-13.08008 -11.92068,-13.37984 z m -0.26033,5.67639 c 3.85502,0.16717 6.83107,3.5075 6.64963,7.46358 -0.18144,3.95608 -3.45145,7.02556 -7.30647,6.85839 -3.85502,-0.16717 -6.84171,-3.50797 -6.66027,-7.46405 0.18143,-3.95608 3.46209,-7.02509 7.31711,-6.85792 z"
           id="path3108"
           inkscape:connector-curvature="0"
           inkscape:export-filename="/home/karlisson/brasil.png"
           inkscape:export-xdpi="90"
           inkscape:export-ydpi="90" />
      </g>
    </g>
    <g
       transform="matrix(0.17693277,0,0,0.17693277,291.91323,337.0528)"
       style="font-style:normal;font-weight:normal;font-size:71.97549438px;line-height:125%;font-family:sans-serif;letter-spacing:0px;word-spacing:0px;fill:#ffffff;fill-opacity:1;stroke:none;stroke-width:1px;stroke-linecap:butt;stroke-linejoin:miter;stroke-opacity:1"
       id="flowRoot3359">
      <path
         d="m 55.223219,83.077226 q 0,-12.469755 -5.020291,-19.757274 -4.858346,-7.287519 -15.546708,-7.287519 -4.858346,0 -9.230857,1.457504 -4.210567,1.457504 -6.801685,3.238897 l 0,48.745406 q 2.105283,0.48583 5.344181,0.97167 3.400842,0.32389 8.097243,0.32389 10.850307,0 17.004212,-7.28752 6.153905,-7.449464 6.153905,-20.405054 z m 20.081164,0.32389 q 0,10.202527 -3.076953,18.461714 -2.915008,8.09724 -8.583078,13.92726 -5.506126,5.83002 -13.441424,8.90697 -7.935299,3.07695 -17.975881,3.07695 -9.716692,0 -18.62366,-1.4575 -8.7450229,-1.45751 -14.57503826,-3.2389 l 0,-119.8392047 19.59532926,-3.23889744118 0,43.88706014118 q 3.400842,-1.781394 8.259188,-3.238898 5.020291,-1.457504 11.012252,-1.457504 8.906967,0 15.870597,3.238898 7.125574,3.076952 11.821975,8.906968 4.696402,5.830015 7.125575,14.089203 2.591118,8.097244 2.591118,17.975881 z"
         style="font-style:normal;font-variant:normal;font-weight:500;font-stretch:normal;font-size:161.94487px;font-family:Ubuntu;-inkscape-font-specification:'Ubuntu Medium';letter-spacing:-2.5808804px;fill:#ffffff"
         id="path6132" />
      <path
         d="m 141.1781,58.623551 q -2.42917,-0.809725 -6.80168,-1.619449 -4.21057,-0.971669 -9.87864,-0.971669 -3.2389,0 -6.96363,0.647779 -3.56279,0.64778 -5.02029,1.133614 l 0,67.854904 -19.595329,0 0,-80.648548 q 5.668071,-2.105284 14.089199,-3.886677 8.58308,-1.943339 18.94755,-1.943339 1.94334,0 4.53446,0.32389 2.59112,0.161945 5.18224,0.64778 2.59111,0.323889 5.02029,0.971669 2.42917,0.485834 3.88667,0.971669 l -3.40084,16.518377 z"
         style="font-style:normal;font-variant:normal;font-weight:500;font-stretch:normal;font-size:161.94487px;font-family:Ubuntu;-inkscape-font-specification:'Ubuntu Medium';letter-spacing:-2.5808804px;fill:#ffffff"
         id="path6134" />
      <path
         d="m 185.29302,111.90341 q 9.06891,0 13.76531,-0.97167 l 0,-21.700609 q -1.61945,-0.485834 -4.6964,-0.971669 -3.07695,-0.485835 -6.80168,-0.485835 -3.2389,0 -6.63974,0.485835 -3.2389,0.485835 -5.99196,1.781394 -2.59112,1.295559 -4.21057,3.724732 -1.61945,2.267228 -1.61945,5.830015 0,6.963627 4.37251,9.716697 4.37251,2.59111 11.82198,2.59111 z m -1.61945,-73.037133 q 9.71669,0 16.35643,2.429173 6.63974,2.429173 10.52642,6.801684 4.04862,4.372512 5.66807,10.688362 1.78139,6.153905 1.78139,13.603369 l 0,51.336525 q -4.53446,0.97167 -13.76531,2.26723 -9.06892,1.4575 -20.567,1.4575 -7.61141,0 -13.92726,-1.4575 -6.31585,-1.45751 -10.85031,-4.6964 -4.37251,-3.2389 -6.96363,-8.42114 -2.42917,-5.18223 -2.42917,-12.79364 0,-7.287522 2.75306,-12.307813 2.91501,-5.020291 7.77336,-8.097243 4.85834,-3.238898 11.17419,-4.534456 6.4778,-1.457504 13.44143,-1.457504 3.23889,0 6.80168,0.485834 3.56279,0.32389 7.61141,1.295559 l 0,-3.238897 q 0,-3.400842 -0.80972,-6.477795 -0.80973,-3.076952 -2.91501,-5.344181 -1.94334,-2.429173 -5.34418,-3.724732 -3.2389,-1.295559 -8.25919,-1.295559 -6.80168,0 -12.46976,0.97167 -5.66807,0.971669 -9.23085,2.267228 l -2.42918,-15.870597 q 3.72474,-1.295559 10.85031,-2.591118 7.12557,-1.295559 15.22282,-1.295559 z"
         style="font-style:normal;font-variant:normal;font-weight:500;font-stretch:normal;font-size:161.94487px;font-family:Ubuntu;-inkscape-font-specification:'Ubuntu Medium';letter-spacing:-2.5808804px;fill:#ffffff"
         id="path6136" />
      <path
         d="m 260.47857,111.57952 q 7.77335,0 11.33614,-1.78139 3.56279,-1.94334 3.56279,-6.4778 0,-4.210562 -3.88668,-6.963624 -3.72473,-2.753063 -12.46975,-5.991961 -5.34418,-1.943338 -9.87864,-4.048621 -4.37251,-2.267229 -7.61141,-5.182236 -3.2389,-2.915008 -5.18224,-6.96363 -1.78139,-4.210566 -1.78139,-10.202526 0,-11.660031 8.58308,-18.299771 8.58308,-6.801684 23.32006,-6.801684 7.44946,0 14.25115,1.457503 6.80168,1.295559 10.20253,2.591118 l -3.56279,15.870598 q -3.2389,-1.457504 -8.25919,-2.591118 -5.02029,-1.295559 -11.66003,-1.295559 -5.99196,0 -9.71669,2.105283 -3.72473,1.943339 -3.72473,6.153905 0,2.105283 0.64777,3.724732 0.80973,1.619449 2.59112,3.076953 1.7814,1.295559 4.6964,2.753062 2.91501,1.295559 7.12558,2.753063 6.96363,2.591118 11.82197,5.182236 4.85835,2.429173 7.9353,5.668071 3.2389,3.076952 4.6964,7.125574 1.45751,4.048622 1.45751,9.716692 0,12.14587 -9.06892,18.46172 -8.90696,6.1539 -25.58729,6.1539 -11.17419,0 -17.97588,-1.94334 -6.80168,-1.78139 -9.55474,-2.91501 l 3.40084,-16.35643 q 4.37251,1.7814 10.36447,3.40084 6.15391,1.61945 13.92726,1.61945 z"
         style="font-style:normal;font-variant:normal;font-weight:500;font-stretch:normal;font-size:161.94487px;font-family:Ubuntu;-inkscape-font-specification:'Ubuntu Medium';letter-spacing:-2.5808804px;fill:#ffffff"
         id="path6138" />
      <path
         d="m 330.45405,125.66873 -19.59533,0 0,-84.69717 19.59533,0 0,84.69717 z m 2.10528,-109.474735 q 0,5.506125 -3.56278,8.745023 -3.56279,3.238897 -8.42114,3.238897 -5.02029,0 -8.58308,-3.238897 -3.56278,-3.238898 -3.56278,-8.745023 0,-5.668071 3.56278,-8.906968 3.56279,-3.2388974 8.58308,-3.2388974 4.85835,0 8.42114,3.2388974 3.56278,3.238897 3.56278,8.906968 z"
         style="font-style:normal;font-variant:normal;font-weight:500;font-stretch:normal;font-size:161.94487px;font-family:Ubuntu;-inkscape-font-specification:'Ubuntu Medium';letter-spacing:-2.5808804px;fill:#ffffff"
         id="path6140" />
      <path
         d="m 382.18795,127.28818 q -8.74502,-0.16195 -14.57503,-1.94334 -5.66808,-1.7814 -9.06892,-5.02029 -3.40084,-3.40085 -4.85834,-8.25919 -1.29556,-5.02029 -1.29556,-11.33614 l 0,-97.4908147 19.59533,-3.23889744118 0,97.00497714118 q 0,3.562785 0.48583,5.991965 0.64778,2.42917 2.10528,4.21056 1.45751,1.61945 3.88668,2.59112 2.59112,0.80972 6.4778,1.29556 l -2.75307,16.19449 z"
         style="font-style:normal;font-variant:normal;font-weight:500;font-stretch:normal;font-size:161.94487px;font-family:Ubuntu;-inkscape-font-specification:'Ubuntu Medium';letter-spacing:-2.5808804px;fill:#ffffff"
         id="path6142" />
      <path
         d="m 420.23501,114.98037 q 0,5.66807 -3.88668,9.23085 -3.72473,3.56279 -9.06891,3.56279 -5.50612,0 -9.23086,-3.56279 -3.72473,-3.56278 -3.72473,-9.23085 0,-5.66807 3.72473,-9.23086 3.72474,-3.72473 9.23086,-3.72473 5.34418,0 9.06891,3.72473 3.88668,3.56279 3.88668,9.23086 z"
         style="font-style:normal;font-variant:normal;font-weight:500;font-stretch:normal;font-size:161.94487px;font-family:Ubuntu;-inkscape-font-specification:'Ubuntu Medium';letter-spacing:-2.5808804px;fill:#ffffff"
         id="path6144" />
      <path
         d="m 458.40348,125.66873 -19.59533,0 0,-84.69717 19.59533,0 0,84.69717 z m 2.10529,-109.474735 q 0,5.506125 -3.56279,8.745023 -3.56279,3.238897 -8.42114,3.238897 -5.02029,0 -8.58307,-3.238897 -3.56279,-3.238898 -3.56279,-8.745023 0,-5.668071 3.56279,-8.906968 3.56278,-3.2388974 8.58307,-3.2388974 4.85835,0 8.42114,3.2388974 3.56279,3.238897 3.56279,8.906968 z"
         style="font-style:normal;font-variant:normal;font-weight:500;font-stretch:normal;font-size:161.94487px;font-family:Ubuntu;-inkscape-font-specification:'Ubuntu Medium';letter-spacing:-2.5808804px;fill:#ffffff"
         id="path6146" />
      <path
         d="m 557.26337,83.239171 q 0,10.040582 -2.915,18.299769 -2.91501,8.25919 -8.25919,14.08921 -5.34418,5.83001 -12.95559,9.06891 -7.44947,3.2389 -16.51838,3.2389 -9.06891,0 -16.51838,-3.2389 -7.44946,-3.2389 -12.79364,-9.06891 -5.34418,-5.83002 -8.42113,-14.08921 -2.91501,-8.259187 -2.91501,-18.299769 0,-10.040582 2.91501,-18.137825 3.07695,-8.259189 8.42113,-14.089204 5.50613,-5.830015 12.95559,-8.906968 7.44946,-3.238897 16.35643,-3.238897 8.90697,0 16.35643,3.238897 7.61141,3.076953 12.95559,8.906968 5.34418,5.830015 8.25919,14.089204 3.07695,8.097243 3.07695,18.137825 z m -20.08116,0 q 0,-12.6317 -5.50613,-19.919219 -5.34418,-7.449464 -15.06087,-7.449464 -9.71669,0 -15.22282,7.449464 -5.34418,7.287519 -5.34418,19.919219 0,12.793645 5.34418,20.243109 5.50613,7.44946 15.22282,7.44946 9.71669,0 15.06087,-7.44946 5.50613,-7.449464 5.50613,-20.243109 z"
         style="font-style:normal;font-variant:normal;font-weight:500;font-stretch:normal;font-size:161.94487px;font-family:Ubuntu;-inkscape-font-specification:'Ubuntu Medium';letter-spacing:-2.5808804px;fill:#ffffff"
         id="path6148" />
    </g>
  </g>
</svg>
